<?xml version='1.0' encoding='utf-8'?>
<!-- Generator: imaengine 6.0   -->
<svg xmlns:xlink="http://www.w3.org/1999/xlink" xmlns="http://www.w3.org/2000/svg" viewBox="0,0,1800,844" version="1.1">
<defs/>
<g id="layer0">
<path d="M267.843,711.843L292.157,711.843L292.157,736.157L267.843,736.157L267.843,711.843ZM307.843,711.843L332.157,711.843L332.157,736.157L307.843,736.157L307.843,711.843ZM347.843,711.843L372.157,711.843L372.157,736.157L347.843,736.157L347.843,711.843ZM387.843,711.843L412.157,711.843L412.157,736.157L387.843,736.157L387.843,711.843ZM427.843,711.843L452.157,711.843L452.157,736.157L427.843,736.157L427.843,711.843ZM1507.84,711.843L1532.16,711.843L1532.16,736.157L1507.84,736.157L1507.84,711.843ZM1547.84,711.843L1572.16,711.843L1572.16,736.157L1547.84,736.157L1547.84,711.843ZM1587.84,711.843L1612.16,711.843L1612.16,736.157L1587.84,736.157L1587.84,711.843ZM1627.84,711.843L1652.16,711.843L1652.16,736.157L1627.84,736.157L1627.84,711.843ZM1667.84,711.843L1692.16,711.843L1692.16,736.157L1667.84,736.157L1667.84,711.843ZM187.843,671.843L212.157,671.843L212.157,696.157L187.843,696.157L187.843,671.843ZM227.843,671.843L252.157,671.843L252.157,696.157L227.843,696.157L227.843,671.843ZM267.843,671.843L292.157,671.843L292.157,696.157L267.843,696.157L267.843,671.843ZM307.843,671.843L332.157,671.843L332.157,696.157L307.843,696.157L307.843,671.843ZM347.843,671.843L372.157,671.843L372.157,696.157L347.843,696.157L347.843,671.843ZM387.843,671.843L412.157,671.843L412.157,696.157L387.843,696.157L387.843,671.843ZM427.843,671.843L452.157,671.843L452.157,696.157L427.843,696.157L427.843,671.843ZM467.843,671.843L492.157,671.843L492.157,696.157L467.843,696.157L467.843,671.843ZM1467.84,671.843L1492.16,671.843L1492.16,696.157L1467.84,696.157L1467.84,671.843ZM1507.84,671.843L1532.16,671.843L1532.16,696.157L1507.84,696.157L1507.84,671.843ZM1547.84,671.843L1572.16,671.843L1572.16,696.157L1547.84,696.157L1547.84,671.843ZM1587.84,671.843L1612.16,671.843L1612.16,696.157L1587.84,696.157L1587.84,671.843ZM1627.84,671.843L1652.16,671.843L1652.16,696.157L1627.84,696.157L1627.84,671.843ZM1667.84,671.843L1692.16,671.843L1692.16,696.157L1667.84,696.157L1667.84,671.843ZM1707.84,671.843L1732.16,671.843L1732.16,696.157L1707.84,696.157L1707.84,671.843ZM187.843,631.843L212.157,631.843L212.157,656.157L187.843,656.157L187.843,631.843ZM227.843,631.843L252.157,631.843L252.157,656.157L227.843,656.157L227.843,631.843ZM427.843,631.843L452.157,631.843L452.157,656.157L427.843,656.157L427.843,631.843ZM467.843,631.843L492.157,631.843L492.157,656.157L467.843,656.157L467.843,631.843ZM507.843,631.843L532.157,631.843L532.157,656.157L507.843,656.157L507.843,631.843ZM867.843,631.843L892.157,631.843L892.157,656.157L867.843,656.157L867.843,631.843ZM1427.84,631.843L1452.16,631.843L1452.16,656.157L1427.84,656.157L1427.84,631.843ZM1467.84,631.843L1492.16,631.843L1492.16,656.157L1467.84,656.157L1467.84,631.843ZM1667.84,631.843L1692.16,631.843L1692.16,656.157L1667.84,656.157L1667.84,631.843ZM1707.84,631.843L1732.16,631.843L1732.16,656.157L1707.84,656.157L1707.84,631.843ZM147.843,591.843L172.157,591.843L172.157,616.157L147.843,616.157L147.843,591.843ZM187.843,591.843L212.157,591.843L212.157,616.157L187.843,616.157L187.843,591.843ZM467.843,591.843L492.157,591.843L492.157,616.157L467.843,616.157L467.843,591.843ZM507.843,591.843L532.157,591.843L532.157,616.157L507.843,616.157L507.843,591.843ZM867.843,591.843L892.157,591.843L892.157,616.157L867.843,616.157L867.843,591.843ZM947.843,591.843L972.157,591.843L972.157,616.157L947.843,616.157L947.843,591.843ZM987.843,591.843L1012.16,591.843L1012.16,616.157L987.843,616.157L987.843,591.843ZM1027.84,591.843L1052.16,591.843L1052.16,616.157L1027.84,616.157L1027.84,591.843ZM1067.84,591.843L1092.16,591.843L1092.16,616.157L1067.84,616.157L1067.84,591.843ZM1107.84,591.843L1132.16,591.843L1132.16,616.157L1107.84,616.157L1107.84,591.843ZM1147.84,591.843L1172.16,591.843L1172.16,616.157L1147.84,616.157L1147.84,591.843ZM1187.84,591.843L1212.16,591.843L1212.16,616.157L1187.84,616.157L1187.84,591.843ZM1227.84,591.843L1252.16,591.843L1252.16,616.157L1227.84,616.157L1227.84,591.843ZM1267.84,591.843L1292.16,591.843L1292.16,616.157L1267.84,616.157L1267.84,591.843ZM1307.84,591.843L1332.16,591.843L1332.16,616.157L1307.84,616.157L1307.84,591.843ZM1347.84,591.843L1372.16,591.843L1372.16,616.157L1347.84,616.157L1347.84,591.843ZM1387.84,591.843L1412.16,591.843L1412.16,616.157L1387.84,616.157L1387.84,591.843ZM1427.91,591.907L1452.09,591.907L1452.09,616.093L1427.91,616.093L1427.91,591.907ZM1467.84,591.843L1492.16,591.843L1492.16,616.157L1467.84,616.157L1467.84,591.843ZM1587.84,591.843L1612.16,591.843L1612.16,616.157L1587.84,616.157L1587.84,591.843ZM1667.84,591.843L1692.16,591.843L1692.16,616.157L1667.84,616.157L1667.84,591.843ZM1707.84,591.843L1732.16,591.843L1732.16,616.157L1707.84,616.157L1707.84,591.843ZM147.843,551.843L172.157,551.843L172.157,576.157L147.843,576.157L147.843,551.843ZM187.843,551.843L212.157,551.843L212.157,576.157L187.843,576.157L187.843,551.843ZM307.843,551.843L332.157,551.843L332.157,576.157L307.843,576.157L307.843,551.843ZM347.891,551.891L372.109,551.891L372.109,576.109L347.891,576.109L347.891,551.891ZM387.875,551.875L412.125,551.875L412.125,576.125L387.875,576.125L387.875,551.875ZM427.875,551.875L452.125,551.875L452.125,576.125L427.875,576.125L427.875,551.875ZM467.843,551.843L492.157,551.843L492.157,576.157L467.843,576.157L467.843,551.843ZM507.843,551.843L532.157,551.843L532.157,576.157L507.843,576.157L507.843,551.843ZM547.843,551.843L572.157,551.843L572.157,576.157L547.843,576.157L547.843,551.843ZM588.336,552.336L611.664,552.336L611.664,575.664L588.336,575.664L588.336,552.336ZM627.843,551.843L652.157,551.843L652.157,576.157L627.843,576.157L627.843,551.843ZM667.843,551.843L692.157,551.843L692.157,576.157L667.843,576.157L667.843,551.843ZM707.907,551.907L732.093,551.907L732.093,576.093L707.907,576.093L707.907,551.907ZM747.907,551.907L772.093,551.907L772.093,576.093L747.907,576.093L747.907,551.907ZM787.891,551.891L812.109,551.891L812.109,576.109L787.891,576.109L787.891,551.891ZM827.891,551.891L852.109,551.891L852.109,576.109L827.891,576.109L827.891,551.891ZM867.875,551.875L892.125,551.875L892.125,576.125L867.875,576.125L867.875,551.875ZM907.907,551.907L932.093,551.907L932.093,576.093L907.907,576.093L907.907,551.907ZM947.859,551.859L972.141,551.859L972.141,576.141L947.859,576.141L947.859,551.859ZM987.859,551.859L1012.14,551.859L1012.14,576.141L987.859,576.141L987.859,551.859ZM1027.87,551.875L1052.13,551.875L1052.13,576.125L1027.87,576.125L1027.87,551.875ZM1067.87,551.875L1092.13,551.875L1092.13,576.125L1067.87,576.125L1067.87,551.875ZM1107.87,551.875L1132.13,551.875L1132.13,576.125L1107.87,576.125L1107.87,551.875ZM1147.87,551.875L1172.13,551.875L1172.13,576.125L1147.87,576.125L1147.87,551.875ZM1187.87,551.875L1212.13,551.875L1212.13,576.125L1187.87,576.125L1187.87,551.875ZM1227.87,551.875L1252.13,551.875L1252.13,576.125L1227.87,576.125L1227.87,551.875ZM1267.87,551.875L1292.13,551.875L1292.13,576.125L1267.87,576.125L1267.87,551.875ZM1307.87,551.875L1332.13,551.875L1332.13,576.125L1307.87,576.125L1307.87,551.875ZM1347.86,551.859L1372.14,551.859L1372.14,576.141L1347.86,576.141L1347.86,551.859ZM1427.84,551.843L1452.16,551.843L1452.16,576.157L1427.84,576.157L1427.84,551.843ZM1467.84,551.843L1492.16,551.843L1492.16,576.157L1467.84,576.157L1467.84,551.843ZM1507.84,551.843L1532.16,551.843L1532.16,576.157L1507.84,576.157L1507.84,551.843ZM1547.84,551.843L1572.16,551.843L1572.16,576.157L1547.84,576.157L1547.84,551.843ZM1587.84,551.843L1612.16,551.843L1612.16,576.157L1587.84,576.157L1587.84,551.843ZM1667.84,551.843L1692.16,551.843L1692.16,576.157L1667.84,576.157L1667.84,551.843ZM1707.84,551.843L1732.16,551.843L1732.16,576.157L1707.84,576.157L1707.84,551.843ZM147.843,511.843L172.157,511.843L172.157,536.157L147.843,536.157L147.843,511.843ZM187.843,511.843L212.157,511.843L212.157,536.157L187.843,536.157L187.843,511.843ZM347.843,511.843L372.157,511.843L372.157,536.157L347.843,536.157L347.843,511.843ZM387.843,511.843L412.157,511.843L412.157,536.157L387.843,536.157L387.843,511.843ZM467.843,511.843L492.157,511.843L492.157,536.157L467.843,536.157L467.843,511.843ZM507.843,511.843L532.157,511.843L532.157,536.157L507.843,536.157L507.843,511.843ZM587.843,511.843L612.157,511.843L612.157,536.157L587.843,536.157L587.843,511.843ZM867.843,511.843L892.157,511.843L892.157,536.157L867.843,536.157L867.843,511.843ZM907.843,511.843L932.157,511.843L932.157,536.157L907.843,536.157L907.843,511.843ZM1347.95,511.954L1372.05,511.954L1372.05,536.046L1347.95,536.046L1347.95,511.954ZM1428.03,512.034L1451.97,512.034L1451.97,535.966L1428.03,535.966L1428.03,512.034ZM1467.84,511.843L1492.16,511.843L1492.16,536.157L1467.84,536.157L1467.84,511.843ZM1507.84,511.843L1532.16,511.843L1532.16,536.157L1507.84,536.157L1507.84,511.843ZM1547.84,511.843L1572.16,511.843L1572.16,536.157L1547.84,536.157L1547.84,511.843ZM1593.53,517.532L1606.47,517.532L1606.47,530.468L1593.53,530.468L1593.53,517.532ZM1667.84,511.843L1692.16,511.843L1692.16,536.157L1667.84,536.157L1667.84,511.843ZM1707.84,511.843L1732.16,511.843L1732.16,536.157L1707.84,536.157L1707.84,511.843ZM187.843,471.843L212.157,471.843L212.157,496.157L187.843,496.157L187.843,471.843ZM227.843,471.843L252.157,471.843L252.157,496.157L227.843,496.157L227.843,471.843ZM347.843,471.843L372.157,471.843L372.157,496.157L347.843,496.157L347.843,471.843ZM387.843,471.843L412.157,471.843L412.157,496.157L387.843,496.157L387.843,471.843ZM427.938,471.938L452.062,471.938L452.062,496.062L427.938,496.062L427.938,471.938ZM467.843,471.843L492.157,471.843L492.157,496.157L467.843,496.157L467.843,471.843ZM507.843,471.843L532.157,471.843L532.157,496.157L507.843,496.157L507.843,471.843ZM547.843,471.843L572.157,471.843L572.157,496.157L547.843,496.157L547.843,471.843ZM867.891,471.891L892.109,471.891L892.109,496.109L867.891,496.109L867.891,471.891ZM1347.87,471.875L1372.13,471.875L1372.13,496.125L1347.87,496.125L1347.87,471.875ZM1387.84,471.843L1412.16,471.843L1412.16,496.157L1387.84,496.157L1387.84,471.843ZM1467.84,471.843L1492.16,471.843L1492.16,496.157L1467.84,496.157L1467.84,471.843ZM1507.84,471.843L1532.16,471.843L1532.16,496.157L1507.84,496.157L1507.84,471.843ZM1547.84,471.843L1572.16,471.843L1572.16,496.157L1547.84,496.157L1547.84,471.843ZM1587.84,471.843L1612.16,471.843L1612.16,496.157L1587.84,496.157L1587.84,471.843ZM1627.84,471.843L1652.16,471.843L1652.16,496.157L1627.84,496.157L1627.84,471.843ZM1667.84,471.843L1692.16,471.843L1692.16,496.157L1667.84,496.157L1667.84,471.843ZM187.843,431.843L212.157,431.843L212.157,456.157L187.843,456.157L187.843,431.843ZM227.843,431.843L252.157,431.843L252.157,456.157L227.843,456.157L227.843,431.843ZM267.843,431.843L292.157,431.843L292.157,456.157L267.843,456.157L267.843,431.843ZM387.843,431.843L412.157,431.843L412.157,456.157L387.843,456.157L387.843,431.843ZM427.843,431.843L452.157,431.843L452.157,456.157L427.843,456.157L427.843,431.843ZM467.843,431.843L492.157,431.843L492.157,456.157L467.843,456.157L467.843,431.843ZM547.843,431.843L572.157,431.843L572.157,456.157L547.843,456.157L547.843,431.843ZM867.907,431.907L892.093,431.907L892.093,456.093L867.907,456.093L867.907,431.907ZM1387.84,431.843L1412.16,431.843L1412.16,456.157L1387.84,456.157L1387.84,431.843ZM1427.91,431.907L1452.09,431.907L1452.09,456.093L1427.91,456.093L1427.91,431.907ZM1507.84,431.843L1532.16,431.843L1532.16,456.157L1507.84,456.157L1507.84,431.843ZM1547.84,431.843L1572.16,431.843L1572.16,456.157L1547.84,456.157L1547.84,431.843ZM1587.84,431.843L1612.16,431.843L1612.16,456.157L1587.84,456.157L1587.84,431.843ZM1627.84,431.843L1652.16,431.843L1652.16,456.157L1627.84,456.157L1627.84,431.843ZM227.843,391.843L252.157,391.843L252.157,416.157L227.843,416.157L227.843,391.843ZM267.843,391.843L292.157,391.843L292.157,416.157L267.843,416.157L267.843,391.843ZM307.843,391.843L332.157,391.843L332.157,416.157L307.843,416.157L307.843,391.843ZM347.843,391.843L372.157,391.843L372.157,416.157L347.843,416.157L347.843,391.843ZM387.843,391.843L412.157,391.843L412.157,416.157L387.843,416.157L387.843,391.843ZM427.843,391.843L452.157,391.843L452.157,416.157L427.843,416.157L427.843,391.843ZM467.843,391.843L492.157,391.843L492.157,416.157L467.843,416.157L467.843,391.843ZM547.843,391.843L572.157,391.843L572.157,416.157L547.843,416.157L547.843,391.843ZM867.875,391.875L892.125,391.875L892.125,416.125L867.875,416.125L867.875,391.875ZM1427.84,391.843L1452.16,391.843L1452.16,416.157L1427.84,416.157L1427.84,391.843ZM1467.86,391.859L1492.14,391.859L1492.14,416.141L1467.86,416.141L1467.86,391.859ZM1507.84,391.843L1532.16,391.843L1532.16,416.157L1507.84,416.157L1507.84,391.843ZM347.843,351.843L372.157,351.843L372.157,376.157L347.843,376.157L347.843,351.843ZM474.39,358.39L485.61,358.39L485.61,369.61L474.39,369.61L474.39,358.39ZM507.843,351.843L532.157,351.843L532.157,376.157L507.843,376.157L507.843,351.843ZM547.875,351.875L572.125,351.875L572.125,376.125L547.875,376.125L547.875,351.875ZM587.843,351.843L612.157,351.843L612.157,376.157L587.843,376.157L587.843,351.843ZM867.938,351.938L892.062,351.938L892.062,376.062L867.938,376.062L867.938,351.938ZM1427.84,351.843L1452.16,351.843L1452.16,376.157L1427.84,376.157L1427.84,351.843ZM1467.84,351.843L1492.16,351.843L1492.16,376.157L1467.84,376.157L1467.84,351.843ZM1507.84,351.843L1532.16,351.843L1532.16,376.157L1507.84,376.157L1507.84,351.843ZM467.843,311.843L492.157,311.843L492.157,336.157L467.843,336.157L467.843,311.843ZM507.843,311.843L532.157,311.843L532.157,336.157L507.843,336.157L507.843,311.843ZM667.954,311.954L692.046,311.954L692.046,336.046L667.954,336.046L667.954,311.954ZM707.843,311.843L732.157,311.843L732.157,336.157L707.843,336.157L707.843,311.843ZM747.843,311.843L772.157,311.843L772.157,336.157L747.843,336.157L747.843,311.843ZM787.938,311.938L812.062,311.938L812.062,336.062L787.938,336.062L787.938,311.938ZM827.875,311.875L852.125,311.875L852.125,336.125L827.875,336.125L827.875,311.875ZM867.986,311.986L892.014,311.986L892.014,336.014L867.986,336.014L867.986,311.986ZM1467.84,311.843L1492.16,311.843L1492.16,336.157L1467.84,336.157L1467.84,311.843ZM1507.84,311.843L1532.16,311.843L1532.16,336.157L1507.84,336.157L1507.84,311.843ZM867.843,271.843L892.157,271.843L892.157,296.157L867.843,296.157L867.843,271.843ZM1467.84,271.843L1492.16,271.843L1492.16,296.157L1467.84,296.157L1467.84,271.843ZM427.843,231.843L452.157,231.843L452.157,256.157L427.843,256.157L427.843,231.843ZM467.843,231.843L492.157,231.843L492.157,256.157L467.843,256.157L467.843,231.843ZM507.843,231.843L532.157,231.843L532.157,256.157L507.843,256.157L507.843,231.843ZM547.843,231.843L572.157,231.843L572.157,256.157L547.843,256.157L547.843,231.843ZM867.843,231.843L892.157,231.843L892.157,256.157L867.843,256.157L867.843,231.843ZM387.843,191.843L412.157,191.843L412.157,216.157L387.843,216.157L387.843,191.843ZM427.843,191.843L452.157,191.843L452.157,216.157L427.843,216.157L427.843,191.843ZM467.843,191.843L492.157,191.843L492.157,216.157L467.843,216.157L467.843,191.843ZM507.843,191.843L532.157,191.843L532.157,216.157L507.843,216.157L507.843,191.843ZM547.843,191.843L572.157,191.843L572.157,216.157L547.843,216.157L547.843,191.843ZM587.843,191.843L612.157,191.843L612.157,216.157L587.843,216.157L587.843,191.843ZM867.843,191.843L892.157,191.843L892.157,216.157L867.843,216.157L867.843,191.843ZM867.843,151.843L892.157,151.843L892.157,176.157L867.843,176.157L867.843,151.843ZM907.843,151.843L932.157,151.843L932.157,176.157L907.843,176.157L907.843,151.843ZM988.018,152.018L1011.98,152.018L1011.98,175.982L988.018,175.982L988.018,152.018ZM867.843,111.843L892.157,111.843L892.157,136.157L867.843,136.157L867.843,111.843ZM907.843,111.843L932.157,111.843L932.157,136.157L907.843,136.157L907.843,111.843ZM867.843,71.8431L892.157,71.8431L892.157,96.1569L867.843,96.1569L867.843,71.8431Z" fill-rule="evenodd" fill="#000000"/>
</g>
</svg>
